# xmcd
#
# Track frame offsets: 
#        150
#        13830
#        26987
#        47962
#        58862
#        75040
#        97230
#        113430
#        131411
#
# Disc length: 2060 seconds
#
# Revision: 0
# Processed by: cddbd v1.5.2PL0 Copyright (c) Steve Scherf et al.
# Submitted via: ExactAudioCopy v1.0b3
#
DISCID=70080a09
DTITLE=Chrome - Blood On The Moon
DYEAR=1981
DGENRE=Avantgarde
TTITLE0=The Need
TTITLE1=Inner Vacume
TTITLE2=Perfumed Metal
TTITLE3=Planet Strike
TTITLE4=The Strangers
TTITLE5=Insect Human
TTITLE6=Out Of Reach
TTITLE7=Brain On Scan
TTITLE8=Blood On The Moon
EXTD=
EXTT0=
EXTT1=
EXTT2=
EXTT3=
EXTT4=
EXTT5=
EXTT6=
EXTT7=
EXTT8=
PLAYORDER=
